<svg xmlns="http://www.w3.org/2000/svg" xmlns:xlink="http://www.w3.org/1999/xlink" width="170" height="33" viewBox="0 0 170 33">
  <defs>
    <path id="footer-logo-a" d="M65.0532217,25.7236025 C67.3053939,25.7236025 69.1708294,25.2282609 70.6495283,24.2375776 C72.1282272,23.2468944 72.8675766,21.8064182 72.8675766,19.9161491 C72.7538306,17.3654244 70.8542712,15.452381 67.1688986,14.1770186 L67.1688986,14.1770186 L65.189717,13.3571429 C64.7574819,13.2204969 64.4503675,13.0838509 64.2683738,12.947205 C64.0863801,12.810559 63.9953832,12.6397516 63.9953832,12.4347826 C63.9953832,11.8654244 64.3707453,11.5807453 65.1214693,11.5807453 C66.0541871,11.5807453 66.7480381,12.0590062 67.2030224,13.015528 L67.2030224,13.015528 L72.2874717,11.5807453 C71.0590141,8.52898551 68.6930959,7.00310559 65.189717,7.00310559 C63.0967893,7.00310559 61.3564744,7.54968944 59.9687724,8.64285714 C58.5810704,9.73602484 57.8872193,11.1594203 57.8872193,12.9130435 C57.8872193,13.4596273 57.9668416,13.9663561 58.1260861,14.4332298 C58.2853306,14.9001035 58.5241973,15.3100414 58.8426863,15.6630435 C59.1611753,16.0160455 59.4682897,16.323499 59.7640295,16.5854037 C60.0597693,16.8473085 60.4351313,17.0921325 60.8901156,17.3198758 C61.3450998,17.547619 61.6920253,17.7127329 61.9308921,17.8152174 C62.1697588,17.9177019 62.4939351,18.0372671 62.903421,18.173913 L62.903421,18.173913 L63.4835259,18.378882 L65.5309552,19.1304348 C66.0314379,19.3126294 66.3556142,19.4663561 66.5034841,19.5916149 C66.651354,19.7168737 66.7252889,19.8819876 66.7252889,20.0869565 C66.7252889,20.679089 66.1679332,20.9751553 65.0532217,20.9751553 C63.4152783,20.9751553 62.4370621,20.2463768 62.1185731,18.7888199 L62.1185731,18.7888199 L57,19.9503106 C57.636978,23.7991718 60.3213852,25.7236025 65.0532217,25.7236025 Z M81.0524188,25.7236025 C83.3045909,25.7236025 84.9652836,24.8581781 86.0344966,23.1273292 L86.0344966,23.1273292 L86.0344966,25.3478261 L93.0640037,25.3478261 L93.0640037,7.37888199 L86.0344966,7.37888199 L86.0344966,17.2173913 C86.0344966,19.2443064 85.3406456,20.257764 83.9529435,20.257764 C82.5424923,20.257764 81.8372667,19.2443064 81.8372667,17.2173913 L81.8372667,17.2173913 L81.8372667,7.37888199 L74.8077596,7.37888199 L74.8077596,17.9006211 C74.8077596,23.115942 76.8893126,25.7236025 81.0524188,25.7236025 Z M103.193904,25.3478261 L103.193904,15.5093168 C103.193904,13.4824017 103.887755,12.4689441 105.275457,12.4689441 C106.685908,12.4689441 107.391134,13.4824017 107.391134,15.5093168 L107.391134,15.5093168 L107.391134,25.3478261 L114.420641,25.3478261 L114.420641,14.826087 C114.420641,9.61076605 112.339088,7.00310559 108.175981,7.00310559 C105.923809,7.00310559 104.263117,7.86853002 103.193904,9.59937888 L103.193904,9.59937888 L103.193904,7.37888199 L96.1643965,7.37888199 L96.1643965,25.3478261 L103.193904,25.3478261 Z M124.345798,25.3478261 L124.345798,15.5093168 C124.345798,13.4824017 125.039649,12.4689441 126.427351,12.4689441 C127.837802,12.4689441 128.543028,13.4824017 128.543028,15.5093168 L128.543028,15.5093168 L128.543028,25.3478261 L135.572535,25.3478261 L135.572535,14.826087 C135.572535,9.61076605 133.490982,7.00310559 129.327875,7.00310559 C127.075703,7.00310559 125.415011,7.86853002 124.345798,9.59937888 L124.345798,9.59937888 L124.345798,7.37888199 L117.316291,7.37888199 L117.316291,25.3478261 L124.345798,25.3478261 Z M146.316663,33 L157.714019,7.37888199 L150.377398,7.37888199 L146.896768,16.568323 L143.791501,7.37888199 L136.113641,7.37888199 L143.586758,23.6055901 L139.423652,33 L146.316663,33 Z M165.114014,25.7236025 C167.366186,25.7236025 169.231621,25.2282609 170.71032,24.2375776 C172.189019,23.2468944 172.928369,21.8064182 172.928369,19.9161491 C172.814623,17.3654244 170.915063,15.452381 167.229691,14.1770186 L167.229691,14.1770186 L165.250509,13.3571429 C164.818274,13.2204969 164.51116,13.0838509 164.329166,12.947205 C164.147172,12.810559 164.056175,12.6397516 164.056175,12.4347826 C164.056175,11.8654244 164.431537,11.5807453 165.182261,11.5807453 C166.114979,11.5807453 166.80883,12.0590062 167.263814,13.015528 L167.263814,13.015528 L172.348264,11.5807453 C171.119806,8.52898551 168.753888,7.00310559 165.250509,7.00310559 C163.157581,7.00310559 161.417266,7.54968944 160.029564,8.64285714 C158.641862,9.73602484 157.948011,11.1594203 157.948011,12.9130435 C157.948011,13.4596273 158.027634,13.9663561 158.186878,14.4332298 C158.346123,14.9001035 158.584989,15.3100414 158.903478,15.6630435 C159.221967,16.0160455 159.529082,16.323499 159.824821,16.5854037 C160.120561,16.8473085 160.495923,17.0921325 160.950908,17.3198758 C161.405892,17.547619 161.752817,17.7127329 161.991684,17.8152174 C162.230551,17.9177019 162.554727,18.0372671 162.964213,18.173913 L162.964213,18.173913 L163.544318,18.378882 L165.591747,19.1304348 C166.09223,19.3126294 166.416406,19.4663561 166.564276,19.5916149 C166.712146,19.7168737 166.786081,19.8819876 166.786081,20.0869565 C166.786081,20.679089 166.228725,20.9751553 165.114014,20.9751553 C163.47607,20.9751553 162.497854,20.2463768 162.179365,18.7888199 L162.179365,18.7888199 L157.060792,19.9503106 C157.69777,23.7991718 160.382177,25.7236025 165.114014,25.7236025 Z M178.588048,6.28571429 C179.839255,6.28571429 180.806096,5.98964803 181.488573,5.39751553 C182.171049,4.80538302 182.512287,4.05383023 182.512287,3.14285714 C182.512287,2.20910973 182.182424,1.45186335 181.522697,0.871118012 C180.862969,0.290372671 179.884753,0 178.588048,0 C177.291343,0 176.313127,0.290372671 175.653399,0.871118012 C174.993672,1.45186335 174.663809,2.20910973 174.663809,3.14285714 C174.663809,4.05383023 175.005047,4.80538302 175.687523,5.39751553 C176.37,5.98964803 177.336841,6.28571429 178.588048,6.28571429 Z M182.102802,25.3478261 L182.102802,7.37888199 L175.073295,7.37888199 L175.073295,25.3478261 L182.102802,25.3478261 Z M192.744559,25.7236025 C195.133226,25.7236025 196.839417,24.8581781 197.863132,23.1273292 L197.863132,23.1273292 L197.863132,25.3478261 L204.892639,25.3478261 L204.892639,0.649068323 L197.863132,0.649068323 L197.863132,9.63354037 C196.839417,7.87991718 195.133226,7.00310559 192.744559,7.00310559 C190.333142,7.00310559 188.325524,7.88561077 186.721704,9.65062112 C185.117885,11.4156315 184.315975,13.6532091 184.315975,16.363354 C184.315975,19.073499 185.117885,21.3110766 186.721704,23.076087 C188.325524,24.8410973 190.333142,25.7236025 192.744559,25.7236025 Z M194.655493,20.3602484 C193.654527,20.3602484 192.852618,19.984472 192.249763,19.2329193 C191.646909,18.4813665 191.345482,17.5248447 191.345482,16.363354 C191.345482,15.2018634 191.641222,14.2453416 192.232702,13.4937888 C192.84693,12.742236 193.654527,12.3664596 194.655493,12.3664596 C195.656458,12.3664596 196.458368,12.742236 197.061222,13.4937888 C197.664076,14.2453416 197.965503,15.2018634 197.965503,16.363354 C197.965503,17.5248447 197.664076,18.4813665 197.061222,19.2329193 C196.458368,19.984472 195.656458,20.3602484 194.655493,20.3602484 Z M217.615949,25.7236025 C221.187576,25.7236025 223.974355,24.6873706 225.976285,22.6149068 L225.976285,22.6149068 L223.075761,18.7204969 C221.64256,19.8819876 220.027366,20.4627329 218.230178,20.4627329 C216.865225,20.4627329 215.756201,20.1552795 214.903106,19.5403727 C214.05001,18.9254658 213.623462,18.3333333 213.623462,17.7639752 L213.623462,17.7639752 L226.829381,17.7639752 C226.943127,17.3540373 227,16.8188406 227,16.1583851 C227,13.3343685 226.07297,11.1024845 224.218909,9.46273292 C222.364848,7.82298137 219.993242,7.00310559 217.104092,7.00310559 C214.010199,7.00310559 211.564658,7.92546584 209.767471,9.77018634 C207.970283,11.6149068 207.071689,13.8354037 207.071689,16.431677 C207.071689,19.0962733 208.021468,21.3110766 209.921028,23.076087 C211.820587,24.8410973 214.385561,25.7236025 217.615949,25.7236025 Z M220.652969,14.5186335 L213.623462,14.5186335 C213.668961,13.6759834 214.032948,13.0326087 214.715425,12.5885093 C215.397901,12.1444099 216.205498,11.9223602 217.138216,11.9223602 C218.070934,11.9223602 218.878531,12.1501035 219.561007,12.6055901 C220.243483,13.0610766 220.607471,13.6987578 220.652969,14.5186335 L220.652969,14.5186335 Z"/>
    <filter id="footer-logo-b" width="102.4%" height="112.1%" x="-1.2%" y="-6.1%" filterUnits="objectBoundingBox">
      <feGaussianBlur in="SourceAlpha" result="shadowBlurInner1" stdDeviation="1.5"/>
      <feOffset dy="1" in="shadowBlurInner1" result="shadowOffsetInner1"/>
      <feComposite in="shadowOffsetInner1" in2="SourceAlpha" k2="-1" k3="1" operator="arithmetic" result="shadowInnerInner1"/>
      <feColorMatrix in="shadowInnerInner1" values="0 0 0 0 0   0 0 0 0 0   0 0 0 0 0  0 0 0 0.5 0"/>
    </filter>
  </defs>
  <g fill="none" transform="translate(-57)">
    <use fill="#2C7566" xlink:href="#footer-logo-a"/>
    <use fill="#000" filter="url(#footer-logo-b)" xlink:href="#footer-logo-a"/>
  </g>
</svg>
